<svg width="792" height="678" viewBox="0 0 792 678" fill="none" xmlns="http://www.w3.org/2000/svg">
<path d="M672.209 434.293C672.209 565.903 537.599 615.609 396.302 615.609C255.005 615.609 120.396 565.903 120.396 434.293C120.396 302.684 205.676 139.009 396.302 139.009C606.995 139.009 672.209 302.684 672.209 434.293Z" fill="#257CFF"/>
<path d="M660.079 104.787C675.718 99.7344 690.534 114.397 685.429 129.874L629.313 300.003C624.658 314.114 606.592 318.393 595.986 307.897L480.196 193.304C469.589 182.808 473.914 164.929 488.173 160.322L660.079 104.787Z" fill="#257CFF"/>
<path d="M105.882 129.874C100.777 114.397 115.593 99.7346 131.232 104.787L303.139 160.323C317.398 164.929 321.722 182.808 311.116 193.304L195.325 307.897C184.719 318.394 166.653 314.114 161.998 300.003L105.882 129.874Z" fill="#257CFF"/>
<path d="M134.7 135.815C134.19 134.268 135.671 132.801 137.235 133.307L267.18 175.286C268.606 175.747 269.038 177.535 267.978 178.584L180.451 265.205C179.391 266.255 177.584 265.827 177.119 264.416L134.7 135.815Z" fill="#0052F1"/>
<path d="M652.017 133.307C653.581 132.802 655.063 134.268 654.552 135.816L612.134 264.416C611.668 265.827 609.862 266.255 608.801 265.205L521.275 178.585C520.214 177.535 520.647 175.747 522.073 175.286L652.017 133.307Z" fill="#0052F1"/>
<ellipse cx="396.302" cy="491.494" rx="135.445" ry="124.115" fill="#F4F4F4"/>
<path d="M667.193 453.377C683.585 488.166 636.797 554.256 581.913 580.857C527.61 607.175 392.629 635.504 376.237 600.715C359.844 565.925 466.285 478.937 521.672 453.377C577.059 427.816 650.801 418.587 667.193 453.377Z" fill="#F4F4F4"/>
<path d="M667.193 453.377C683.585 488.166 636.797 554.256 581.913 580.857C527.61 607.175 392.629 635.504 376.237 600.715C359.844 565.925 466.285 478.937 521.672 453.377C577.059 427.816 650.801 418.587 667.193 453.377Z" fill="#F4F4F4"/>
<path d="M667.193 453.377C683.585 488.166 636.797 554.256 581.913 580.857C527.61 607.175 392.629 635.504 376.237 600.715C359.844 565.925 466.285 478.937 521.672 453.377C577.059 427.816 650.801 418.587 667.193 453.377Z" fill="#F4F4F4"/>
<path d="M667.193 453.377C683.585 488.166 636.797 554.256 581.913 580.857C527.61 607.175 392.629 635.504 376.237 600.715C359.844 565.925 466.285 478.937 521.672 453.377C577.059 427.816 650.801 418.587 667.193 453.377Z" fill="#F4F4F4"/>
<path d="M125.412 450.813C108.583 486.53 158.441 558.152 215.709 585.821C272.37 613.197 502 633 432.685 600.029C448.677 566.089 336.692 477.467 278.934 450.813C221.175 424.158 141.404 416.873 125.412 450.813Z" fill="#F4F4F4"/>
<path d="M125.412 450.813C108.583 486.53 158.441 558.152 215.709 585.821C272.37 613.197 502 633 432.685 600.029C448.677 566.089 336.692 477.467 278.934 450.813C221.175 424.158 141.404 416.873 125.412 450.813Z" fill="#F4F4F4"/>
<path d="M125.412 450.813C108.583 486.53 158.441 558.152 215.709 585.821C272.37 613.197 502 633 432.685 600.029C448.677 566.089 336.692 477.467 278.934 450.813C221.175 424.158 141.404 416.873 125.412 450.813Z" fill="#F4F4F4"/>
<path d="M125.412 450.813C108.583 486.53 158.441 558.152 215.709 585.821C272.37 613.197 502 633 432.685 600.029C448.677 566.089 336.692 477.467 278.934 450.813C221.175 424.158 141.404 416.873 125.412 450.813Z" fill="#F4F4F4"/>
<path d="M441.451 431.92C426.401 451.778 421.237 461.707 396.303 461.707C371.368 461.707 366.204 451.778 351.154 431.92C351.154 412.727 371.368 397.167 396.303 397.167C421.237 397.167 441.451 412.727 441.451 431.92Z" fill="#343434"/>
<ellipse cx="275.907" cy="327.663" rx="35.1154" ry="49.6458" fill="#1E1E1E"/>
<circle cx="290.923" cy="307.875" r="10" fill="white"/>
<ellipse cx="516.698" cy="327.663" rx="35.1154" ry="49.6458" fill="#1E1E1E"/>
<circle cx="501.616" cy="307.875" r="10" fill="white"/>
<path d="M240.791 245.528C240.791 241.252 243.632 237.497 247.746 236.333L270.683 229.848C272.627 229.298 273.598 229.024 274.587 228.914C275.464 228.817 276.349 228.817 277.227 228.914C278.215 229.024 279.187 229.298 281.131 229.848L304.067 236.333C308.182 237.497 311.022 241.252 311.022 245.528V245.528C311.022 251.865 304.966 256.446 298.868 254.722L281.131 249.706C279.187 249.157 278.215 248.882 277.227 248.773C276.349 248.675 275.464 248.675 274.587 248.773C273.598 248.882 272.627 249.157 270.683 249.706L252.946 254.722C246.848 256.446 240.791 251.865 240.791 245.528V245.528Z" fill="#1B1000"/>
<path d="M481.583 245.528C481.583 241.252 484.423 237.497 488.537 236.333L511.474 229.848C513.418 229.298 514.39 229.024 515.378 228.914C516.255 228.817 517.141 228.817 518.018 228.914C519.006 229.024 519.978 229.298 521.922 229.848L544.859 236.333C548.973 237.497 551.813 241.252 551.813 245.528V245.528C551.813 251.865 545.757 256.446 539.659 254.722L521.922 249.706C519.978 249.157 519.006 248.882 518.018 248.773C517.141 248.675 516.255 248.675 515.378 248.773C514.39 248.882 513.418 249.157 511.474 249.706L493.737 254.722C487.639 256.446 481.583 251.865 481.583 245.528V245.528Z" fill="#1B1000"/>
<rect x="391.286" y="456.742" width="10.033" height="39.7167" fill="#343434"/>
<path d="M331.088 493.692C331.088 490.295 334.555 488 337.682 489.326L358.707 498.243C361.471 499.416 362.854 500.002 364.286 500.234C365.556 500.44 366.851 500.44 368.121 500.234C369.553 500.002 370.936 499.416 373.7 498.243L394.725 489.326C397.852 488 401.319 490.295 401.319 493.692V493.692C401.319 495.402 400.399 496.979 398.911 497.82L375.655 510.972C372.208 512.921 370.485 513.896 368.657 514.277C367.039 514.615 365.368 514.615 363.75 514.277C361.922 513.896 360.199 512.921 356.752 510.972L333.496 497.82C332.008 496.979 331.088 495.402 331.088 493.692V493.692Z" fill="#343434"/>
<path d="M391.286 493.692C391.286 490.295 394.753 488 397.88 489.326L418.905 498.243C421.669 499.416 423.052 500.002 424.484 500.234C425.754 500.44 427.049 500.44 428.319 500.234C429.751 500.002 431.134 499.416 433.898 498.243L454.923 489.326C458.05 488 461.517 490.295 461.517 493.692V493.692C461.517 495.402 460.597 496.979 459.109 497.82L435.853 510.972C432.406 512.921 430.683 513.896 428.855 514.277C427.237 514.615 425.566 514.615 423.948 514.277C422.12 513.896 420.397 512.921 416.95 510.972L393.694 497.82C392.206 496.979 391.286 495.402 391.286 493.692V493.692Z" fill="#343434"/>
<rect x="164" y="257" width="197" height="142" rx="36" stroke="black" stroke-width="12"/>
<rect x="435" y="257" width="197" height="142" rx="36" stroke="black" stroke-width="12"/>
<rect x="367" y="318" width="62" height="20" fill="black"/>
</svg>
